<?xml version="1.0" encoding="UTF-8" standalone="no"?>
<!-- Created with Inkscape (http://www.inkscape.org/) -->

<svg
   version="1.1"
   id="svg1"
   width="256"
   height="256"
   viewBox="0 0 256 256"
   sodipodi:docname="BEN - Icon.svg"
   inkscape:version="1.4.2 (f4327f4, 2025-05-13)"
   xmlns:inkscape="http://www.inkscape.org/namespaces/inkscape"
   xmlns:sodipodi="http://sodipodi.sourceforge.net/DTD/sodipodi-0.dtd"
   xmlns="http://www.w3.org/2000/svg"
   xmlns:svg="http://www.w3.org/2000/svg">
  <defs
     id="defs1" />
  <sodipodi:namedview
     id="namedview1"
     pagecolor="#ffffff"
     bordercolor="#000000"
     borderopacity="0.25"
     inkscape:showpageshadow="2"
     inkscape:pageopacity="0.0"
     inkscape:pagecheckerboard="0"
     inkscape:deskcolor="#d1d1d1"
     inkscape:zoom="3.1523438"
     inkscape:cx="128"
     inkscape:cy="128"
     inkscape:window-width="1920"
     inkscape:window-height="1009"
     inkscape:window-x="1912"
     inkscape:window-y="-8"
     inkscape:window-maximized="1"
     inkscape:current-layer="g1" />
  <g
     inkscape:groupmode="layer"
     inkscape:label="Image"
     id="g1">
    <path
       style="fill:#000000"
       d="M 47,252.41762 C 39.071741,249.5934 31.474177,240.54829 28.371614,230.24002 26.438571,223.81748 26.498518,212.3321 28.521431,201.5365 30.519781,190.87199 30.118319,188.98171 23.004122,175.55819 13.953829,158.48151 10.263339,142.71855 9.3567641,117.26703 8.6544695,97.550568 9.6180387,87.082338 13.49043,72.358825 17.362747,57.635595 22.846676,46.562006 30.130062,38.758745 37.934957,30.396751 54.429779,18.408369 59.5,17.412771 60.05,17.304772 64.072835,15.788472 68.439634,14.043215 91.342188,4.8898629 128.32119,0.70409084 157.12444,4.0046965 179.44309,6.5622227 205.95134,14.235323 210.5,19.454833 c 0.55,0.631116 3.19919,2.892637 5.88708,5.025603 6.03825,4.791623 15.97811,17.966698 19.70863,26.123368 3.26376,7.136106 7.11557,20.853041 8.7513,31.164755 2.18845,13.796198 0.90408,35.961791 -3.2649,56.345231 -1.92247,9.39956 -9.01211,30.18706 -13.83891,40.57698 -1.34303,2.89093 -0.3645,8.51935 3.40561,19.58871 4.22135,12.39422 3.81055,19.73345 -1.6034,28.64576 -4.53567,7.46653 -8.03689,10.96026 -16.54541,16.51003 -8.07952,5.26995 -14.34506,7.08873 -24.0477,6.98065 -8.14239,-0.0907 -13.61858,-2.02427 -23.39808,-8.26154 C 162.83404,240.41947 159.76705,239 158.73868,239 c -1.02837,0 -5.32777,1.60239 -9.55422,3.56087 -17.89599,8.29274 -33.13022,8.30176 -46.68446,0.0276 -3.940196,-2.40527 -4.044853,-2.41461 -7,-0.62451 -1.65,0.9995 -8.4,3.97434 -15,6.61075 -10.435092,4.16837 -13.108477,4.83602 -20.5,5.11967 -5.973229,0.22922 -9.837702,-0.15033 -13,-1.27681 z M 72.823683,239.42643 C 85.240721,235.26349 90.863899,231.5872 95.273053,224.7496 96.248232,223.23732 97.417389,222 97.871179,222 c 0.45379,0 1.619109,1.76086 2.589601,3.91302 3.97196,8.80825 14.98769,15.25032 27.20579,15.91014 11.84415,0.63962 19.61999,-3.18583 25.53109,-12.56044 1.81629,-2.88051 3.52734,-5.24106 3.80234,-5.24568 0.275,-0.005 2.75,2.04326 5.5,4.55085 2.75,2.50758 8.12299,6.10564 11.93998,7.99568 6.32836,3.13358 7.71992,3.43643 15.78984,3.43643 7.0714,0 9.69592,-0.43077 13.06002,-2.14358 12.42797,-6.32765 18.0751,-15.15093 18.14885,-28.35642 0.0414,-7.41697 -0.20323,-8.39139 -3.35692,-13.37049 -3.49319,-5.51511 -8.90998,-9.06044 -13.9151,-9.10755 -3.05222,-0.0287 -2.47966,-1.35622 1.83333,-4.25058 6.19116,-4.15477 8.09445,-9.31604 19.64456,-53.27138 5.06219,-19.26479 5.89563,-25.99498 5.75839,-46.5 -0.0826,-12.347881 -0.43455,-15.464743 -2.371,-21 C 222.92485,44.543066 214.81526,36.946434 191.5,26.842068 c -3.85,-1.668512 -7.45,-3.147583 -8,-3.286823 -0.55,-0.13924 -1.675,-0.5292 -2.5,-0.866578 C 168.19602,17.452563 144.24697,12.991166 129.02623,13.006631 122.99849,13.012756 106.70921,15.413468 96,17.874032 83.139258,20.828936 61.957676,29.595849 57.383893,33.856976 56.319513,34.848597 54.239351,36.45229 52.761311,37.420739 48.531528,40.1922 43.69175,48.372723 37.019442,64.028722 25.764213,90.438154 23.147131,105.04773 26.36607,123.5 c 0.863511,4.95 2.476346,14.15836 3.584078,20.46302 3.253178,18.51549 6.20639,26.39891 13.453993,35.91462 7.719497,10.13528 7.332754,9.11014 4.276713,11.33631 -9.471034,6.89916 -15.652002,27.73933 -11.309593,38.13218 1.502038,3.59488 7.533866,8.8434 12.782505,11.12254 5.328943,2.31401 14.91854,1.89176 23.669917,-1.04224 z M 54.5,234.12865 C 46.430061,232.02683 43,227.90458 43,220.30796 c 0,-7.96033 1.861281,-14.27814 5.560668,-18.87475 5.475676,-6.80372 14.526281,-8.16291 19.450747,-2.92106 1.849822,1.96905 2.161833,3.15952 1.710328,6.52574 -0.964308,7.18945 -5.645084,9.77668 -12.246303,6.76897 -2.135487,-0.973 -2.787141,-0.92687 -3.531741,0.25 -1.549068,2.44835 -1.063958,4.02838 2.162056,7.04193 3.991828,3.72893 7.481464,3.70725 12.708149,-0.0789 6.063166,-4.39214 7.42588,-7.07574 7.980366,-15.71582 l 0.486259,-7.57694 10.415085,0.53156 C 98.3125,196.80051 102,198.20189 102,201.69483 c 0,1.88874 -3.721518,9.05136 -6.894285,13.26908 C 85.215789,228.11109 66.077221,237.14395 54.5,234.12865 Z m 62.3481,-1.64452 c -2.55854,-1.33251 -6.08191,-4.12406 -7.82971,-6.20344 C 106.01589,222.70856 105.86507,222.14144 106.28435,216 107.07292,204.44933 112,197.20062 112,207.59114 c 0,8.44121 3.97633,14.07795 11.9042,16.87506 9.09339,3.20833 18.61742,1.32942 21.45726,-4.23313 C 147.01514,216.99393 149,208.11176 149,203.95078 149,202.32785 149.46114,201 150.02475,201 c 3.35316,0 3.70265,15.75889 0.48738,21.97655 -1.95973,3.7897 -8.15068,9.86349 -11.32723,11.11288 -1.2733,0.50082 -5.7733,0.88962 -10,0.86401 -6.12439,-0.0371 -8.62952,-0.53853 -12.3368,-2.46931 z m 58.55084,-2.06557 c -6.29284,-3.31595 -10.53672,-7.41837 -13.71486,-13.25772 -2.9938,-5.50066 -6.33238,-16.84587 -5.26992,-17.90833 0.40878,-0.40878 5.82394,-0.90452 12.03369,-1.10165 l 11.29045,-0.35841 0.45279,8.62681 c 0.34733,6.61732 0.92561,9.26008 2.48262,11.34553 2.31527,3.10105 7.00524,4.78359 10.72889,3.84901 3.61399,-0.90705 10.85136,-8.05245 10.42436,-10.29189 -0.53344,-2.79766 -4.09874,-2.72596 -6.78789,0.1365 -2.94352,3.13323 -6.41967,3.264 -8.48237,0.31908 -3.62629,-5.17725 -0.22042,-14.49452 6.24386,-17.08101 5.59147,-2.23727 10.71226,-0.85741 15.38769,4.14639 2.02854,2.17101 3.83825,3.7973 4.02157,3.61398 1.12969,-1.12969 -0.16931,15.63872 -1.43648,18.54315 -3.51804,8.06353 -11.43843,12 -24.14464,12 -7.02446,0 -9.09902,-0.4048 -13.22976,-2.58144 z m -51.016,-13.00185 c -1.71438,-0.84576 -3.62688,-2.65669 -4.25,-4.02428 -1.44209,-3.16504 -1.45499,-9.44258 -0.0269,-13.07733 l 1.10607,-2.8151 1.22517,4.6942 c 1.56228,5.9858 3.10897,7.8058 6.63361,7.8058 2.88764,0 7.92908,-3.75776 7.92908,-5.91013 0,-1.76692 4.8666,-6.29035 6.00838,-5.58469 1.52999,0.94559 1.17257,11.24422 -0.50267,14.48378 -0.82186,1.5893 -2.49699,3.59195 -3.7225,4.45034 -2.83839,1.98808 -10.34846,1.9763 -14.40027,-0.0226 z M 130.5,191.92394 c -13.75,-0.38061 -28.6,-1.18025 -33,-1.77699 -4.4,-0.59674 -13.4,-0.98642 -20,-0.86596 -11.885605,0.21692 -12.053416,0.18813 -17.603293,-3.02044 C 52.767012,182.13863 46.095698,175.01569 42.788121,167.99376 39.070148,160.10058 30.914732,121.7453 30.900666,112.08654 30.888616,103.81238 33.207853,92.604073 37.887652,78.320144 41.340614,67.780828 44.594281,61.011073 50.297277,52.5 53.99802,46.977062 63,36.413506 63,37.593732 c 0,0.279428 1.4625,-0.583729 3.25,-1.918125 9.031442,-6.742114 32.29018,-13.969395 50.66071,-15.742006 12.12869,-1.170323 27.37973,-0.500624 38.05974,1.671264 8.38096,1.704355 24.86106,7.006953 32.52955,10.46663 2.75,1.240677 5.3375,2.18214 5.75,2.09214 C 193.6625,34.073636 194,34.45 194,35 c 0,0.55 0.52634,1 1.16964,1 0.64331,0 5.0968,2.67151 9.89665,5.936689 4.79985,3.265179 8.99851,5.740179 9.33035,5.5 0.33185,-0.240179 0.39782,-0.15615 0.14661,0.186732 -0.25122,0.342881 0.6151,2.030381 1.92515,3.75 1.31005,1.719618 3.61393,6.726579 5.11974,11.126579 2.37704,6.945732 2.79619,9.976752 3.1806,23 0.4996,16.9256 -0.85386,27.34348 -5.71637,44 -1.6056,5.5 -4.48198,15.86098 -6.39194,23.02439 -5.67324,21.2777 -9.95232,28.07913 -20.02786,31.83346 -6.48646,2.41697 -25.9985,6.86433 -35.13257,8.00774 -1.1,0.1377 -13.25,-0.061 -27,-0.44165 z m 38.1016,-11.41822 c 13.22062,-4.42459 22.40265,-9.39641 28.13465,-15.23414 6.48009,-6.59964 12.73983,-19.10121 14.15603,-28.27158 0.96447,-6.24529 2.51529,-43.006953 2.18136,-51.708568 -0.22145,-5.77064 -2.5612,-14.331933 -5.77181,-21.119449 C 204.5452,58.344237 195.56723,48.531398 193.92215,49.548113 193.41497,49.86157 193,49.715721 193,49.224005 193,48.253566 177.37842,36.53539 172.5,33.846392 161.40067,27.728408 142.43722,27.055883 115,31.807193 c -41.314835,7.1545 -53.248765,16.06202 -64.018666,47.783712 -4.512719,13.291771 -5.339313,20.731685 -4.58239,41.244645 0.696919,18.88681 2.606609,33.34361 5.02023,38.00431 5.219888,10.07961 21.895652,17.44278 43.42406,19.17387 12.239936,0.98421 36.302546,3.73766 43.656766,4.99559 8.61471,1.47354 21.39375,0.41068 30.1016,-2.5036 z M 130.5,174.91233 c -4.4,-1.0836 -9.29884,-2.29684 -10.88631,-2.69608 -3.18677,-0.80146 -3.3104,-1.24479 -3.82491,-13.71625 l -0.28878,-7 h 13.5 13.5 l 0.29158,10.5 c 0.33794,12.16939 -0.15111,15.02303 -2.56063,14.94125 -0.95202,-0.0323 -5.33095,-0.94532 -9.73095,-2.02892 z m 18.81256,0.30201 c -3.18296,-2.02391 -4.2475,-11.67132 -2.00612,-18.18059 0.65646,-1.90644 2.40031,-4.14152 3.87522,-4.96684 2.44776,-1.36969 2.86158,-1.33775 4.74439,0.36617 5.51302,4.98921 5.18911,20.77381 -0.47085,22.94574 -2.1594,0.82864 -4.68722,0.76095 -6.14264,-0.16448 z m 16.72262,-4.1486 C 165.46583,170.0019 165,164.48861 165,158.81399 v -10.3175 l 18.25,-5.90826 c 10.0375,-3.24955 18.84933,-6.12354 19.58186,-6.38665 2.12687,-0.76394 0.74754,5.17749 -2.94789,12.69793 -4.19221,8.5314 -12.39021,16.67792 -21.00668,20.87476 -7.6185,3.71075 -11.34669,4.08567 -12.84211,1.29147 z m -65.68992,-1.44518 c -2.424056,-2.08509 -2.813897,-3.22936 -3.151361,-9.25 -0.32998,-5.88712 -0.07475,-7.26419 1.783079,-9.62056 2.749202,-3.48694 6.242722,-3.55745 8.899722,-0.17962 4.23537,5.3844 3.57361,16.59995 -1.17573,19.92652 -2.80579,1.96525 -3.09919,1.9248 -6.35571,-0.87634 z m -22.961754,-1.99477 c -6.228753,-1.55736 -12.933162,-5.37545 -17.55519,-9.99747 -3.850636,-3.85064 -7.771912,-15.08472 -5.913892,-16.94274 1.229722,-1.22973 33.746335,5.11804 35.572642,6.94434 0.958631,0.95863 2.98367,19.26202 2.212089,19.99405 -1.06462,1.01004 -10.278537,1.01121 -14.315649,0.002 z M 108,144.01946 c -4.38344,-0.67839 -29.550678,-4.9991 -50.707309,-8.70542 -2.905549,-0.50901 -3.269703,-0.97794 -3.870471,-4.98415 -0.36474,-2.43225 -0.405759,-4.67968 -0.09116,-4.99429 0.314605,-0.3146 7.681317,1.25619 16.370472,3.49065 C 78.390691,131.0607 88.425,133.4091 92,134.04489 c 3.575,0.6358 7.625,1.42668 9,1.75751 1.375,0.33083 11.275,0.5876 22,0.57059 14.24318,-0.0226 21.65664,-0.48069 27.5,-1.69934 4.4,-0.91763 13.95052,-2.55969 21.22339,-3.64901 9.32505,-1.3967 15.14732,-2.85295 19.74949,-4.93967 6.59503,-2.99033 8.20036,-3.40877 12.27712,-3.20012 2.70527,0.13845 2.83573,1.13558 0.5,3.82151 -4.25862,4.89713 -20.23342,10.76921 -40.60964,14.92744 -9.70719,1.98098 -15.94834,2.55361 -31.14036,2.85719 -10.45,0.20882 -21.475,-0.003 -24.5,-0.47153 z m -3.5,-13.6611 C 88.329963,128.51513 82.013268,127.32401 72.904931,124.4006 67.077643,122.53027 61.164996,121 59.765715,121 58.366434,121 56.202437,120.17476 54.956833,119.16613 48.332642,113.80218 53.878974,82.484095 64.569838,64.885034 71.880159,52.850947 81.72842,44.460908 84.164174,48.19201 84.633813,48.911404 85.746589,51.975 86.637012,55 c 2.298464,7.808492 5.842857,14.444445 9.079843,16.999642 3.754526,2.96373 11.651995,2.439391 16.141905,-1.071714 5.15703,-4.03278 9.17769,-13.634264 10.42831,-24.903136 l 1.08346,-9.762641 7.46561,-0.631075 c 4.10609,-0.347092 8.63522,-0.630698 10.06474,-0.630236 l 2.59912,8.4e-4 v 13.74916 c 0,11.361007 0.3132,14.322904 1.80318,17.052341 2.88078,5.2772 5.34243,7.196819 9.22894,7.196819 10.52359,0 19.89706,-9.467094 21.10756,-21.318392 0.66501,-6.510696 1.25341,-8.441307 2.16411,-7.10072 0.38292,0.563661 2.46938,2.351049 4.63658,3.971975 C 186.41565,51.526106 201.19937,66 200.26098,66 c -0.27823,0 0.002,0.611481 0.62187,1.358846 2.8993,3.493438 5.20133,13.516332 5.77435,25.141154 0.99039,20.09173 -1.17652,23.75206 -16.84623,28.45665 -10.0016,3.00282 -22.46201,5.3487 -37.31097,7.02442 -4.95,0.55861 -12.825,1.46297 -17.5,2.0097 -8.00366,0.93601 -23.83923,1.12686 -30.5,0.36759 z M 99.373596,66.014559 c -4.530544,-1.82949 -8.970343,-11.902527 -8.204506,-18.614422 0.26619,-2.332919 1.041922,-3.132221 3.966256,-4.086763 4.209535,-1.374048 19.858414,-3.652945 20.522704,-2.988656 0.9068,0.906795 -2.94581,17.288422 -4.89696,20.822294 -2.81192,5.092907 -6.70669,6.757713 -11.387494,4.867547 z M 153,65.200898 C 152.175,64.815404 151.35576,63.15 151.17947,61.5 c -0.1763,-1.65 -0.9638,-7.384538 -1.75,-12.743418 C 148.64326,43.397703 148,38.335203 148,37.506582 c 0,-1.866076 4.30336,-1.970871 14.15082,-0.344598 l 7.03608,1.161984 -0.34345,8.766377 c -0.27168,6.934536 -0.77429,9.343081 -2.40524,11.526227 -3.92021,5.247482 -9.9629,8.20822 -13.43821,6.584326 z"
       id="path1" />
  </g>
</svg>
