<svg width="70" height="70" viewBox="0 0 70 70" fill="none" xmlns="http://www.w3.org/2000/svg">
<g clip-path="url(#clip0_252_757)">
<path d="M11.5571 69.5224C9.72451 68.2785 8.09305 66.2754 7.27085 64.2597C6.28738 61.8486 6.71253 58.3297 8.25576 56.1077L8.70453 55.4615L7.66731 54.4372C7.09684 53.8738 6.45535 52.96 6.24179 52.4065C5.08566 49.4102 6.66929 45.9214 9.74073 44.6984L10.7315 44.3038L10.7322 40.7288C10.7335 34.08 11.4768 31.0194 13.9803 27.3538C17.1255 22.7488 22.2808 19.3847 28.5364 17.8553C30.3328 17.4162 31.1633 17.3478 34.7559 17.3435C39.2093 17.3381 40.6165 17.564 44.3539 18.8844C49.8759 20.8353 54.5868 25.0024 57.0936 30.1538C58.5939 33.2367 58.7803 34.2526 58.7803 39.3447V43.8772L60.2606 44.6841C61.0747 45.1278 62.0654 45.8866 62.4621 46.3702C64.5076 48.8637 64.2471 52.4346 61.8687 54.5045L60.9884 55.2706L61.8823 57.0891C63.5353 60.452 63.2423 63.646 60.9995 66.7103C59.8514 68.2789 57.6281 70 56.7498 70C55.7978 70 52.7735 67.2576 51.7618 65.4769C50.8708 63.9087 50.4008 61.8299 50.599 60.3342C50.6716 59.7866 50.6695 59.4838 50.5943 59.6615C48.2712 65.1533 43.9761 68.5484 37.9267 69.6747C35.7509 70.0797 34.1291 70.0815 31.9741 69.6812C26.3374 68.6341 22.1335 65.6146 19.8319 60.9599L19.0302 59.3385L19.0272 60.9756C19.0219 63.8941 17.705 66.3913 14.8607 68.8769C13.4037 70.1501 12.6879 70.29 11.5571 69.5224ZM37.4072 68.1752C39.1525 67.9005 41.7702 66.9271 43.2889 65.9881C45.3307 64.7256 47.6331 62.0646 48.5492 59.9083C49.5805 57.4811 49.7552 55.7076 49.7556 47.6666C49.7558 43.1925 49.6624 40.0359 49.5277 39.9624C49.4022 39.8939 47.9479 39.676 46.296 39.4783C41.7186 38.9303 25.7077 38.9777 22.4389 39.549L20.1218 39.9538V48.2462C20.1218 55.6898 20.1688 56.6928 20.5811 58.0462C22.1742 63.2751 26.8213 67.2993 32.2759 68.1733C34.5472 68.5372 35.1054 68.5374 37.4072 68.1752ZM33.1274 63.8223C32.7684 63.7706 32.3329 63.5775 32.1597 63.3933C31.8952 63.1118 31.9356 62.9934 32.4128 62.6522C33.1742 62.1078 36.8257 62.0585 37.4214 62.5846C37.8988 63.0062 37.9028 63.1984 37.4412 63.5368C37.0699 63.8089 34.3052 63.9919 33.1274 63.8223ZM28.5461 61.2873C27.7095 60.397 29.0985 59.3958 31.3455 59.2695C32.2169 59.2205 33.0664 59.2775 33.2332 59.3961C33.8392 59.8271 35.0442 59.8984 36.1219 59.567C37.7414 59.069 39.5174 59.132 40.5126 59.7228C41.4389 60.2727 41.6821 60.9561 41.1027 61.3807C40.78 61.6172 40.5344 61.5738 39.5665 61.1089L38.4145 60.5555L37.0824 60.9701C35.5141 61.4581 34.3894 61.4819 33.0486 61.0553C31.7237 60.6338 30.9993 60.6616 30.0549 61.17C29.102 61.6831 28.9306 61.6964 28.5461 61.2873ZM33.0774 58.0934C32.5397 57.5939 32.0668 57.3726 31.4632 57.3382C29.7845 57.2425 28.7828 55.1831 30.0375 54.4071C30.7796 53.9481 31.5205 54.3195 31.4175 55.0989C31.347 55.6324 31.4227 55.6855 32.4234 55.8039C33.2595 55.9028 33.6633 56.0987 34.2004 56.666L34.8954 57.4L35.6793 56.5991C36.305 55.96 36.6602 55.786 37.4389 55.7376C38.3503 55.6809 38.4225 55.6275 38.5364 54.9255C38.7711 53.4796 40.2437 54.0408 40.2437 55.5762C40.2437 56.6328 39.5167 57.2923 38.3521 57.2923C37.7263 57.2923 37.3344 57.4737 36.7229 58.0462C36.0474 58.6787 35.7505 58.8 34.8779 58.8C34.0198 58.8 33.7049 58.6764 33.0774 58.0934ZM32.2955 54.8925C32.0401 54.5276 32.1863 48.9415 32.4686 48.2787C32.7842 47.5378 34.377 46.0923 34.8779 46.0923C35.3074 46.0923 36.8577 47.436 37.292 48.1846C37.6141 48.7399 37.8579 54.4985 37.5763 54.9009C37.4716 55.0505 37.0686 55.141 36.6807 55.1019L35.9754 55.0308L35.8535 52.0154C35.6994 48.2064 35.1749 47.1275 34.2836 48.7863C33.955 49.3978 33.896 50.0323 33.9744 52.1148C34.0352 53.7332 33.9765 54.7714 33.816 54.9131C33.4757 55.2136 32.5111 55.2005 32.2955 54.8925ZM25.5094 50.8053C23.742 50.4392 22.2948 49.3648 21.8447 48.0846C21.6043 47.4008 22.4197 47.4327 23.1682 48.1363C23.8445 48.772 26.0294 49.5385 27.1653 49.5385C27.8941 49.5385 29.4329 49.1969 30.5486 48.7875C30.9074 48.6558 30.9754 48.7505 30.9754 49.3816C30.9754 50.1922 30.7418 50.3371 28.6584 50.8184C27.522 51.0809 26.8259 51.078 25.5094 50.8053ZM40.5227 50.7075C38.8276 50.3048 38.7803 50.2727 38.7803 49.5257C38.7803 48.7881 38.9769 48.7574 40.5902 49.2429C42.5746 49.84 44.8607 49.3546 46.7072 47.9441C47.5903 47.2695 47.8047 47.2464 47.8047 47.8261C47.8047 49.0687 46.5365 50.1409 44.4068 50.699C42.8221 51.1143 42.2405 51.1155 40.5227 50.7075ZM24.8631 47.9297C23.4625 47.2852 22.2289 45.8214 22.681 45.3404C23.1178 44.8756 23.2611 44.919 24.3563 45.8483C25.9997 47.2426 28.0847 47.4195 30.0748 46.3333C30.5348 46.0823 31.0936 45.8769 31.3168 45.8769C31.986 45.8769 32.0578 46.5027 31.4536 47.0706C29.9264 48.5061 26.9571 48.8932 24.8631 47.9297ZM40.1218 48.1624C39.1229 47.7771 37.8047 46.7684 37.8047 46.3895C37.8047 45.8119 38.5613 45.8176 39.8761 46.405C41.2894 47.0365 42.976 47.1762 43.9019 46.7386C44.1941 46.6005 44.8618 46.1456 45.3855 45.7278C46.3498 44.9585 47.073 44.8899 47.073 45.5677C47.073 46.1479 46.0911 47.1823 44.9148 47.841C44.0008 48.3529 43.5482 48.4601 42.3301 48.4531C41.518 48.4485 40.5242 48.3177 40.1218 48.1624ZM30.8535 44.2965C28.9645 43.4286 28.8284 43.4 26.5852 43.4C25.2427 43.4 23.8316 43.5279 23.2303 43.7041C22.6595 43.8713 22.115 43.9397 22.0203 43.8561C21.7702 43.6352 23.1274 42.717 24.3099 42.3071C25.8552 41.7714 28.9926 41.9511 30.7315 42.6749C32.1148 43.2506 33.9887 44.7177 33.7593 45.0454C33.5233 45.3826 32.8267 45.2031 30.8535 44.2965ZM35.8535 45.0051C35.8535 44.881 36.3748 44.3237 37.012 43.7667C38.4978 42.4678 40.1785 41.9206 42.6828 41.9206C44.2275 41.9206 44.7525 42.0221 45.9773 42.5575C46.8487 42.9384 47.4697 43.3566 47.5223 43.5979C47.5912 43.9139 47.5124 43.9679 47.1587 43.8473C46.3421 43.5688 44.3447 43.2923 43.1493 43.2923C41.3139 43.2923 39.6745 43.6863 38.1613 44.4909C36.7746 45.2283 35.8535 45.4335 35.8535 45.0051ZM11.9511 62.0518V56.4729L11.1829 56.2365C10.7605 56.1064 10.3916 56 10.3632 56C10.3348 56 9.9122 56.7716 9.42402 57.7147C8.63715 59.2348 8.53642 59.6265 8.53642 61.1656C8.53642 62.6355 8.64895 63.1209 9.27028 64.331C9.89965 65.5568 11.5182 67.6308 11.8454 67.6308C11.9035 67.6308 11.9511 65.1203 11.9511 62.0518ZM15.2216 66.054C17.3737 63.3907 17.8701 60.9326 16.7995 58.2403C16.0192 56.2781 15.6475 55.9232 14.6187 56.1585L13.7803 56.3503L13.7336 61.9955C13.7053 65.4161 13.776 67.592 13.9129 67.5173C14.0372 67.4495 14.6261 66.791 15.2216 66.054ZM55.8535 62.0518V56.4729L55.0854 56.2365C54.6629 56.1064 54.2804 56 54.2352 56C53.9786 56 52.6967 58.6628 52.4538 59.7005C52.1151 61.1472 52.4288 63.1101 53.2201 64.496C53.6324 65.218 55.5813 67.5853 55.7925 67.6206C55.8261 67.6262 55.8535 65.1203 55.8535 62.0518ZM59.7626 65.4587C61.6063 62.9443 61.6758 60.3113 59.9796 57.2385C59.4252 56.2341 59.0594 56.0517 58.1905 56.3461C57.8524 56.4607 57.8047 57.17 57.8047 62.0873V67.6978L58.4217 67.072C58.761 66.7278 59.3644 66.0018 59.7626 65.4587ZM18.3573 55.7138L18.2226 54.2429L17.7295 54.6783L17.2364 55.1138L17.8166 56.1929C18.1357 56.7864 18.4182 57.2524 18.4444 57.2283C18.4705 57.2043 18.4314 56.5227 18.3573 55.7138ZM51.9733 54.847L51.4632 54.3966L51.474 55.6829L51.4848 56.9692L51.9841 56.1333L52.4833 55.2974L51.9733 54.847ZM15.1222 54.2767C16.3299 53.7327 17.0102 53.108 17.5848 52.0154C19.1336 49.0704 16.5985 45.6526 12.8754 45.6663C10.5559 45.6748 8.67062 46.8149 7.93614 48.6532C7.48822 49.7743 7.46699 50.3966 7.83921 51.4937C8.72141 54.0939 12.4042 55.5012 15.1222 54.2767ZM11.9127 53.8516C9.88514 53.3107 8.78032 52.021 8.78032 50.195C8.78032 49.5814 8.90379 48.8677 9.0547 48.6089C10.2459 46.5664 12.9765 45.9215 15.1885 47.1603C18.1979 48.8456 17.5108 52.8361 14.0553 53.7424C12.7054 54.0963 12.8101 54.091 11.9127 53.8516ZM14.573 51.5728C15.215 50.9286 15.3093 49.6553 14.7656 48.9699C14.5698 48.723 14.0759 48.3989 13.6681 48.2497C11.6588 47.5148 9.64693 49.8289 10.9871 51.3334C12.0068 52.4782 13.567 52.5823 14.573 51.5728ZM11.7943 50.9218C10.9779 49.8215 12.1877 48.6332 13.5767 49.1711C14.2246 49.422 14.4556 50.1023 14.0971 50.7041C13.5307 51.655 12.4165 51.7604 11.7943 50.9218ZM58.8491 54.4117C61.1634 53.5387 62.4754 51.2331 61.8566 49.1265C60.7729 45.4372 55.8249 44.3099 52.9221 47.0909C49.8385 50.045 52.1078 54.6713 56.654 54.6991C57.4297 54.7038 58.4175 54.5745 58.8491 54.4117ZM55.8834 53.8372C53.4969 53.3643 51.9191 50.8384 52.8204 48.9336C53.5875 47.3124 54.9053 46.5231 56.8448 46.5231C59.345 46.5231 60.9763 47.981 60.9745 50.2139C60.9733 51.6096 60.4061 52.5331 59.0947 53.2743C58.0061 53.8894 57.0198 54.0623 55.8834 53.8372ZM57.6744 52.0324C58.8284 51.6065 59.386 50.6143 59.0207 49.6366C58.6964 48.7689 57.6325 48.0308 56.7061 48.0308C55.8286 48.0308 54.3901 49.293 54.3901 50.063C54.3901 50.8394 55.0702 51.6919 55.9638 52.0357C56.8875 52.391 56.7015 52.3913 57.6744 52.0324ZM55.8941 51.1332C55.105 50.6451 55.2468 49.5626 56.1584 49.1144C56.7607 48.8183 56.8975 48.8183 57.4998 49.1145C58.361 49.538 58.5087 50.4245 57.8195 51.0331C57.2162 51.5658 56.6418 51.5957 55.8941 51.1332ZM18.1895 40.5449C18.1245 40.4875 17.7884 40.5033 17.4426 40.5799C16.4862 40.7919 15.8555 41.8882 15.8544 43.3406C15.8536 44.4684 15.9107 44.5997 16.5248 44.8801C16.894 45.0487 17.4154 45.4009 17.6833 45.6628L18.1706 46.1389L18.2391 43.394C18.2768 41.8844 18.2544 40.6023 18.1895 40.5449ZM52.2083 45.3243C52.3826 45.1388 52.8351 44.8455 53.2138 44.6726C53.8679 44.3739 53.9023 44.2842 53.9023 42.8773C53.9023 41.4086 53.8951 41.3927 53.0347 40.9444C51.4988 40.1441 51.4632 40.1923 51.4632 43.0769C51.4632 44.4985 51.5596 45.6615 51.6773 45.6615C51.795 45.6615 52.034 45.5098 52.2083 45.3243ZM13.9023 42.5703C13.9023 40.2927 15.204 39.0812 18.3249 38.4543C21.3793 37.8409 25.4248 37.2961 28.0687 37.1423C30.5703 36.9968 30.6791 37.0093 31.6053 37.5471C33.801 38.822 36.5164 38.6978 38.7917 37.2184C39.3664 36.8447 39.6219 36.8316 42.2064 37.0439C48.9488 37.5978 53.3736 38.6525 55.1828 40.1368C55.8013 40.6443 55.8535 40.8149 55.8535 42.3286C55.8535 43.7759 55.904 43.9615 56.2803 43.8976C56.6668 43.832 56.7134 43.4262 56.7732 39.6081L56.8392 35.3909L55.1514 34.7039C52.6556 33.6881 49.1517 32.9725 44.7135 32.5721C41.1195 32.248 40.7579 32.1773 40.6478 31.7774C40.5814 31.536 40.4461 31.1056 40.3472 30.8211L40.1674 30.3037L42.9037 30.4566C45.3664 30.5942 47.5226 30.8718 50.3657 31.4175C50.9023 31.5205 52.3792 31.9045 53.6477 32.2708C54.9162 32.6371 56.0011 32.8953 56.0585 32.8446C56.3437 32.5927 54.3143 28.9673 52.8644 27.1385C51.8142 25.8138 50.4618 24.5382 48.5364 23.0561C48.0669 22.6947 46.6044 21.9066 45.2865 21.3048C37.9605 17.9598 29.0475 18.3671 22.2144 22.3592C18.4186 24.5768 14.9762 28.5115 13.7921 31.9858C13.6107 32.5182 13.5338 32.9532 13.6213 32.9523C13.7087 32.9515 14.5819 32.7106 15.5616 32.417C18.9267 31.4085 29.0602 29.8841 29.5462 30.3133C29.6545 30.4089 29.5814 30.7625 29.3837 31.099C29.186 31.4355 29.0242 31.8381 29.0242 31.9937C29.0242 32.1803 28.5462 32.3189 27.6218 32.4006C20.6314 33.0181 17.3846 33.6096 14.0852 34.8664L12.9267 35.3078V39.6231C12.9267 43.7949 12.9429 43.9385 13.4145 43.9385C13.8511 43.9385 13.9023 43.7949 13.9023 42.5703ZM53.9632 38.4407L52.6828 37.9119V36.503C52.6828 34.7839 52.9069 34.6579 54.6093 35.4197L55.8535 35.9765V37.4806C55.8535 39.2049 55.8356 39.214 53.9632 38.4407ZM14.343 37.9615C13.5798 37.1768 13.6422 36.2018 14.4876 35.7033C15.0723 35.3585 16.3107 35.5347 16.6933 36.0172C17.5129 37.0504 16.8572 38.3385 15.5116 38.3385C15.05 38.3385 14.554 38.1785 14.343 37.9615ZM32.7412 37.1327C30.0865 35.938 29.2504 32.9064 30.9677 30.7023C32.8398 28.2994 36.7444 28.2781 38.8881 30.6592C39.5747 31.4217 39.634 31.6198 39.634 33.152C39.634 35.0395 39.1579 35.9079 37.6095 36.8449C36.5 37.5162 33.9309 37.6681 32.7412 37.1327ZM36.9754 35.0215C37.6521 34.424 37.8047 34.1247 37.8047 33.3955C37.8047 31.6719 36.619 30.5846 34.7393 30.5846C34.0255 30.5846 33.6537 30.7535 32.898 31.4208C31.7725 32.4147 31.6375 33.4242 32.4709 34.6151C33.0789 35.4837 33.6313 35.7215 35.0852 35.7402C35.9772 35.7517 36.2782 35.6372 36.9754 35.0215ZM34.0242 34.8475C32.7736 34.2142 32.5364 32.8482 33.5253 31.9748C34.1934 31.3849 35.4518 31.2722 36.1488 31.7398C37.3563 32.5499 37.1051 34.2917 35.7064 34.8078C34.7392 35.1647 34.6543 35.1667 34.0242 34.8475ZM50.1566 37.2555C49.0292 36.9571 48.5364 36.4263 48.5364 35.51C48.5364 34.4463 49.3022 33.9361 50.5807 34.1479C51.7842 34.3473 51.935 34.5977 51.7773 36.1338C51.6289 37.5792 51.56 37.6269 50.1566 37.2555ZM18.1884 36.9234C16.6762 35.588 18.5914 33.5228 20.3815 34.5585C21.1968 35.0303 21.2276 36.435 20.4334 36.9263C19.737 37.3569 18.6778 37.3556 18.1884 36.9234ZM22.1108 36.2215C21.5068 35.6321 21.5847 34.3463 22.2492 33.9353C23.4889 33.1685 25.1218 33.8349 25.1218 35.1077C25.1218 35.4667 24.905 35.9453 24.634 36.1846C24.0112 36.7346 22.6569 36.7544 22.1108 36.2215ZM45.2912 36.3761C43.7688 35.594 44.6511 33.3846 46.4858 33.3846C47.073 33.3846 48.0486 34.393 48.0486 35C48.0486 36.1433 46.4201 36.956 45.2912 36.3761ZM26.3838 35.9015C25.6334 35.1961 25.6833 34.1802 26.4961 33.6156C26.8496 33.3701 27.3485 33.1692 27.6048 33.1692C28.2767 33.1692 29.2681 34.1321 29.2681 34.7846C29.2681 35.4827 28.2598 36.4 27.4925 36.4C27.1744 36.4 26.6755 36.1757 26.3838 35.9015ZM40.5318 35.9979C40.2691 35.8508 40.2859 35.6133 40.6234 34.702C41.2202 33.0907 42.4008 32.6853 43.5475 33.6979C44.83 34.8304 43.9912 36.187 42.012 36.1813C41.3748 36.1796 40.7087 36.097 40.5318 35.9979ZM52.408 31.013C51.1381 30.3579 47.15 29.749 42.678 29.5274C39.3387 29.362 39.0592 29.3134 37.7802 28.676C36.0413 27.8094 34.1563 27.7501 32.3169 28.5041C31.5078 28.8358 30.1944 29.0924 28.4145 29.2664C24.648 29.6345 22.439 29.9204 19.7176 30.3919C16.9238 30.876 16.5852 30.8895 16.5852 30.517C16.5852 30.0998 19.5664 28.7019 22.0015 27.9772C25.5368 26.9252 28.3868 26.6335 35.1218 26.6343C42.7826 26.6354 45.8246 27.0314 49.6238 28.5225C51.1642 29.1271 53.6584 30.6725 53.6584 31.0224C53.6584 31.2866 52.9277 31.2811 52.408 31.013ZM51.4223 28.33C50.9351 28.0376 50.0864 27.6394 49.5364 27.445L48.5364 27.0917V25.8228C48.5364 23.9126 48.7313 23.9943 51.7681 27.1774C53.4025 28.8906 53.2429 29.4225 51.4223 28.33ZM17.073 28.1481C17.073 27.7443 20.4572 24.5538 20.8855 24.5538C21.1678 24.5538 21.2274 24.8275 21.17 25.8598L21.0974 27.1657L19.3971 27.7982C17.5112 28.4998 17.073 28.5658 17.073 28.1481ZM22.3749 26.5794C22.2759 26.492 22.195 25.802 22.195 25.0461C22.195 23.8661 22.2785 23.6047 22.7856 23.1974C23.6068 22.538 26.517 21.2539 26.8978 21.3829C27.2455 21.5008 27.46 24.3496 27.1999 25.3954C27.0614 25.9522 26.9152 26.0225 25.4147 26.2534C24.5158 26.3917 23.5046 26.5574 23.1676 26.6216C22.8306 26.6858 22.4739 26.6668 22.3749 26.5794ZM44.7559 26.3193C43.6828 26.1321 42.7336 25.8867 42.6467 25.7739C42.5597 25.661 42.4843 24.6565 42.4791 23.5416C42.4719 21.9989 42.5511 21.4869 42.8105 21.399C43.179 21.2741 46.3193 22.6888 47.1026 23.3326C47.5037 23.6622 47.5705 23.9614 47.5105 25.1611C47.4268 26.8366 47.5134 26.8002 44.7559 26.3193ZM28.2925 23.2958V20.7455L29.573 20.5041C32.5248 19.9478 32.6068 19.9476 32.7561 20.4967C32.8313 20.7735 32.8523 22.0177 32.8026 23.2615L32.7122 25.5231L31.539 25.6657C30.8937 25.7442 29.8992 25.8169 29.3291 25.8273L28.2925 25.8462V23.2958ZM37.6965 25.6377L36.9786 25.5231L37.0193 22.8545C37.0417 21.3867 37.0931 20.1566 37.1336 20.1208C37.1741 20.0851 38.1374 20.2198 39.2743 20.4202L41.3413 20.7846L41.4101 23.323L41.4789 25.8614L39.9467 25.8068C39.104 25.7768 38.0914 25.7007 37.6965 25.6377ZM33.9023 22.8432V20.0308H34.8779H35.8535L35.8901 22.5077C35.9102 23.87 35.9376 25.1058 35.9511 25.2538C35.9662 25.4211 35.5828 25.5482 34.9389 25.5893L33.9023 25.6555V22.8432ZM4.68807 43.6219C3.2901 43.2364 2.05026 42.3685 1.19369 41.1757C0.805362 40.635 0.487637 40.1212 0.487637 40.0339C0.487637 39.7946 1.11707 39.6683 3.63828 39.402C6.07183 39.145 7.51765 38.8121 6.3413 38.7797C5.54166 38.7577 3.73372 38.1971 2.7698 37.6723C1.77983 37.1332 0.921424 36.1201 0.375588 34.8466C-0.326315 33.2089 -0.254339 33.1698 3.46779 33.1656L6.70715 33.162L4.99983 32.4256C4.06081 32.0205 2.82928 31.2702 2.2631 30.7582C1.19889 29.7959 -0.0513135 27.5068 0.18736 26.9575C0.323894 26.6433 0.989054 26.6537 5.85349 27.0456L7.43886 27.1733L6.5852 26.6875C4.32793 25.4026 2.38179 22.8023 2.04278 20.6181C1.89091 19.6397 1.90841 19.6 2.49139 19.6C3.11818 19.6 8.63096 20.7854 9.03844 21.0078C9.47684 21.247 9.26409 20.8421 8.50914 20.0004C7.31463 18.6685 6.31979 16.3419 6.16325 14.5141C6.05401 13.2387 6.09444 12.9237 6.36707 12.9262C6.84589 12.9306 8.37493 13.4216 10.3276 14.198L11.9968 14.8617L11.7967 13.7308C11.3978 11.4772 11.6484 9.45007 12.6088 7.16154C12.8717 6.53497 13.1359 6.24615 13.4459 6.24615C13.9445 6.24615 18.2759 7.70793 18.6462 8.00113C19.1229 8.37864 19.4625 8.1602 19.6167 7.37692C19.7042 6.93269 19.8921 6.27846 20.0342 5.92308C20.4286 4.93726 21.9371 2.30987 22.4508 1.71423L22.9075 1.18462L24.3108 1.82751C25.0827 2.1811 26.5862 3.02083 27.6519 3.69356L29.5896 4.91671L30.2215 4.0997C31.3842 2.59657 34.3414 0 34.8905 0C35.442 0 39.3066 3.61177 40.1448 4.91055C40.1676 4.94597 40.9246 4.4815 41.8269 3.8784C44.0444 2.39622 46.7636 1.19155 47.1886 1.50303C47.7284 1.89863 49.4282 5.19506 49.8843 6.73077C50.1218 7.53038 50.3591 8.18462 50.4116 8.18462C50.4641 8.18462 50.9211 7.99811 51.427 7.77016C52.7755 7.16265 56.3102 6.18952 56.6949 6.31988C57.4946 6.59088 58.2005 12.4248 57.6626 14.3174C57.5775 14.6167 57.5606 14.8615 57.6249 14.8615C57.6892 14.8615 58.8261 14.4396 60.1513 13.924C61.4765 13.4083 62.8626 12.9219 63.2315 12.843C63.8842 12.7034 63.9022 12.7243 63.8994 13.619C63.8937 15.4336 62.2902 19.1715 60.9911 20.3987C60.7142 20.6603 60.4876 20.9107 60.4876 20.9552C60.4876 20.9997 62.0906 20.6552 64.0497 20.1898C66.4139 19.6281 67.6934 19.4156 67.8546 19.5579C68.1519 19.8205 67.5265 21.8368 66.7085 23.2523C66.0284 24.4295 64.3434 26.0643 63.1706 26.685L62.3169 27.1369L63.0486 27.1308C63.451 27.1275 64.8779 26.9844 66.2193 26.8127C69.8238 26.3516 69.8275 26.352 69.6311 27.1923C69.0983 29.4727 67.3623 31.4939 65.0404 32.5369L63.5364 33.2125L66.2193 33.0684C67.695 32.9891 69.1217 32.9067 69.39 32.8852C70.1235 32.8265 70.1322 33.6278 69.4117 34.8945C68.3761 36.7154 67.6118 37.4246 65.8433 38.2059C63.8881 39.0697 64.063 39.1924 67.2559 39.1971C69.1549 39.1998 69.2681 39.2262 69.2681 39.6658C69.2681 39.9219 68.9289 40.5983 68.5144 41.1688C67.1772 43.0089 64.1925 44.0989 61.3099 43.7997C60.2045 43.685 59.9695 43.5835 59.852 43.1701C59.7749 42.899 59.7862 42.4705 59.877 42.2179C60.0174 41.8271 60.1571 41.7821 60.8136 41.9162C62.3617 42.2325 64.3419 42.0498 65.3989 41.4931L66.3998 40.966L64.2364 40.8283C63.0465 40.7526 61.5791 40.6212 60.9754 40.5363L59.8779 40.3819L59.8058 38.9294C59.7661 38.1305 59.821 37.4746 59.9277 37.4718C62.5638 37.4021 63.9138 37.2017 65.0474 36.712C66.1503 36.2355 67.5525 35.0286 67.2814 34.7892C67.2326 34.7461 65.6017 34.789 63.6572 34.8847C61.7127 34.9803 60.0483 34.9969 59.9584 34.9216C59.7043 34.7085 59.0916 32.4477 59.2063 32.1462C59.2663 31.9886 59.7303 31.8764 60.325 31.8757C62.5394 31.8731 64.9683 30.9554 66.244 29.6392C66.7 29.1689 67.073 28.7152 67.073 28.6311C67.073 28.5469 66.7163 28.5156 66.2803 28.5613C65.8443 28.6071 64.0608 28.7927 62.3169 28.9737C60.573 29.1548 58.8661 29.3566 58.5239 29.4222C57.9594 29.5305 57.8314 29.4148 57.1465 28.1785C56.3407 26.7237 56.3343 26.4923 57.1002 26.4923C58.5048 26.4923 61.0811 25.7511 62.4193 24.962C63.7218 24.1938 65.3657 22.4411 65.3657 21.8204C65.3657 21.4151 59.6093 22.9226 56.7368 24.0802L54.8152 24.8545L54.1148 24.1623C53.7296 23.7816 53.4145 23.3798 53.4145 23.2695C53.4145 23.1591 53.9673 22.8236 54.6429 22.524C57.6671 21.1826 59.8673 19.3233 60.9646 17.1817C62.1054 14.9553 62.0392 14.9052 59.4925 16.0667C57.0751 17.1693 56.5683 17.5519 54.0245 20.1954C53.0857 21.171 52.1444 21.9692 51.9329 21.9692C51.5095 21.9692 50.4876 21.1045 50.4876 20.7462C50.4876 20.6218 50.9286 20.2503 51.4675 19.9205C53.6267 18.5991 55.0791 16.6257 55.7375 14.1187C56.0618 12.8837 56.1217 10.5035 55.8347 10.2501C55.7761 10.1983 55.1252 11.1834 54.3884 12.4392C52.7918 15.16 50.6834 18.3593 49.8472 19.3299L49.2448 20.029L48.2809 19.5947C47.7507 19.3559 47.3169 19.104 47.3169 19.035C47.3169 18.9659 47.8168 18.4185 48.4277 17.8184C49.0387 17.2183 49.9991 16.0417 50.5619 15.2037C51.7517 13.4322 54.3642 8.76392 54.2376 8.63557C54.1901 8.58745 53.2995 8.92668 52.2585 9.38942L50.3657 10.2308L50.176 11.5903C50.0717 12.338 49.7766 13.4373 49.5202 14.0331C48.9795 15.2898 46.8599 18.2451 46.38 18.4113C46.0018 18.5424 44.3901 17.9188 44.3901 17.6414C44.3901 17.5389 44.884 17.053 45.4877 16.5616C47.5713 14.8656 48.7243 11.874 48.4451 8.88832C48.2821 7.14479 47.0983 4.106 46.7786 4.61044C46.674 4.77555 46.1961 6.49536 45.7166 8.43224C44.3961 13.7672 43.2276 17.4462 42.8536 17.4462C42.7997 17.4462 42.4063 17.3386 41.9795 17.2072C41.1417 16.9493 41.1371 16.8758 41.8613 15.3136C42.3573 14.2437 44.9579 4.30656 44.7825 4.15164C44.6991 4.078 41.7976 5.92126 41.2838 6.37429C41.0445 6.58526 41.0661 6.83258 41.3885 7.57387C42.0169 9.01857 41.9594 12.625 41.2783 14.4871C40.4853 16.6552 40.3225 16.8637 39.553 16.696C39.1951 16.618 38.8175 16.4813 38.714 16.3923C38.6104 16.3033 38.8252 15.559 39.1914 14.7383C39.7766 13.4269 39.8585 12.9462 39.8676 10.7692C39.8778 8.31749 39.8683 8.27536 38.9357 6.62574C38.4175 5.70913 37.5394 4.50352 36.9845 3.94662L35.9754 2.93406L35.8535 9.5978L35.7315 16.2615H34.8779H34.0242L33.9597 9.47733L33.8952 2.69312L33.2757 3.33887C31.9049 4.76797 30.6877 6.62972 30.2031 8.03879C29.5064 10.0643 29.6567 12.6362 30.5922 14.698C30.9545 15.4965 31.1907 16.2359 31.117 16.3412C30.8314 16.7493 29.9575 16.7626 29.5081 16.3658C28.8911 15.8209 28.046 13.3431 27.893 11.6308C27.78 10.3656 28.1773 7.81635 28.6336 6.87887C28.751 6.63773 28.39 6.26301 27.3599 5.5566C25.5841 4.33879 24.8779 3.98574 24.8779 4.3158C24.8779 4.44705 25.1034 5.39546 25.379 6.42338C27.0515 12.6607 27.6388 14.6628 28.0976 15.6898C28.6697 16.9704 28.5338 17.2212 27.2638 17.2275C26.6434 17.2306 26.5627 17.1167 26.0059 15.4538C25.6786 14.4765 25.1869 12.8531 24.9132 11.8462C24.6394 10.8392 24.0566 8.72146 23.6179 7.14L22.8205 4.26461L22.3582 5.20154C21.5811 6.77648 21.2251 8.22116 21.2251 9.8C21.2251 12.5252 22.1792 14.6768 24.2003 16.5097C24.8733 17.1201 25.3521 17.7221 25.2643 17.8475C24.9935 18.2345 23.4525 18.3883 23.0203 18.0716C21.7083 17.11 20.0353 14.1119 19.4864 11.7385C19.322 11.0277 19.0685 10.3097 18.9229 10.1428C18.6578 9.83881 15.8237 8.56988 15.6845 8.69282C15.5824 8.78301 17.4329 12.5302 18.3586 14.1077C19.2587 15.6416 21.345 18.2264 21.9142 18.5128C22.4442 18.7795 22.0324 19.4124 21.1477 19.6909C20.3219 19.9508 19.9817 19.6931 18.469 17.6615C17.449 16.2917 14.7932 11.7091 13.9765 9.90967C13.7678 9.45001 13.7085 9.59288 13.5618 10.9075C13.175 14.3734 14.9486 17.7716 18.3906 20.16L19.3424 20.8204L18.4673 21.4098C17.7689 21.8802 17.5029 21.9527 17.1497 21.7687C16.5716 21.4676 15.3805 20.2635 13.9392 18.5231C12.9034 17.2724 12.5359 17.0143 10.4924 16.1028C9.2343 15.5416 8.16189 15.1205 8.10926 15.167C7.983 15.2785 8.68134 17.0823 9.18572 17.9475C10.2546 19.781 13.0357 21.8735 15.1456 22.4317C16.3406 22.7479 16.3657 23.1628 15.2477 24.1197L14.398 24.847L12.016 23.8526C10.7059 23.3057 9.13382 22.7141 8.52251 22.5381C6.8482 22.0558 4.34799 21.5038 4.24603 21.5939C4.19648 21.6376 4.5318 22.2041 4.99118 22.8526C6.40911 24.8544 8.40021 25.988 11.4023 26.5025C12.2407 26.6462 12.9267 26.8299 12.9267 26.9108C12.9267 26.9917 12.6631 27.5402 12.3411 28.1298L11.7555 29.2017L8.25571 28.935C6.33083 28.7883 4.27058 28.6064 3.67738 28.5308L2.59883 28.3933L3.04916 29.0002C4.07072 30.377 6.0903 31.3504 8.6559 31.7027C10.6999 31.9833 10.7073 31.9929 10.2148 33.72C9.94946 34.6505 9.9141 34.6778 8.93429 34.7097C8.3801 34.7278 7.81691 34.7651 7.68276 34.7926C7.54861 34.8201 6.30873 34.8538 4.92747 34.8675L2.41608 34.8923L2.8543 35.4084C3.09532 35.6922 3.77778 36.1962 4.37089 36.5284C5.29128 37.0439 5.76473 37.1457 7.6026 37.2233L9.75593 37.3142V38.7811C9.75593 40.48 9.98489 40.3393 6.5852 40.7292C3.50387 41.0827 3.31474 41.1877 4.65165 41.8033C5.75557 42.3115 7.66384 42.4555 9.09441 42.1384C9.72919 41.9977 9.75593 42.0258 9.75593 42.8323C9.75593 43.5219 9.65738 43.6962 9.20715 43.8027C8.27347 44.0237 5.78382 43.9241 4.68807 43.6219Z" fill="#26563D"/>
</g>
<defs>
<clipPath id="clip0_252_757">
<rect width="70" height="70" fill="white"/>
</clipPath>
</defs>
</svg>
